<svg xmlns="http://www.w3.org/2000/svg"><symbol id="facebook-icon" viewBox="0 0 24 24"><path fill="#e3c6bf" d="M12 0a12 12 0 0 0-1.79 23.85v-8.67h-3V12h3V9.93c0-3.48 1.69-5 4.58-5a16.26 16.26 0 0 1 2.46.15v2.75h-2c-1.23 0-1.66 1.16-1.66 2.47V12h3.6l-.49 3.15h-3.08v8.7A12 12 0 0 0 12 0z"/></symbol><symbol id="instagram-icon" viewBox="0 0 50 50"><path fill="#e3c6bf" d="M16 3A13 13 0 0 0 3 16v18a13 13 0 0 0 13 13h18a13 13 0 0 0 13-13V16A13 13 0 0 0 34 3zm21 8a2 2 0 1 1-2 2 2 2 0 0 1 2-2zm-12 3a11 11 0 1 1-11 11 11 11 0 0 1 11-11zm0 2a9 9 0 1 0 9 9 9 9 0 0 0-9-9z"/></symbol><symbol id="exit-icon" viewBox="0 0 100 100"><path fill="none" stroke="#e3c6bf" stroke-linecap="round" stroke-miterlimit="10" stroke-width="8.31" d="M21.19 78.81l57.62-57.62m-57.62 0l57.62 57.62"/></symbol><symbol id="twitter-icon" viewBox="0 0 24 24"><style>.st0{fill:#fff}</style><path d="M20.3 6.8c-.6.3-1.3.5-1.9.6.7-.4 1.2-1.1 1.5-1.9-.7.4-1.4.7-2.1.8-.7-.7-1.6-1.1-2.6-1.1-1.9 0-3.4 1.5-3.4 3.4 0 .3 0 .5.1.8-2.8-.1-5.3-1.4-7-3.5-.4.5-.5 1.1-.5 1.7 0 1.1.6 2.2 1.5 2.8-.5-.1-1-.2-1.5-.4v.1c0 1.6 1.1 3 2.7 3.3-.3.1-.6.1-.9.1-.2 0-.4 0-.6-.1.4 1.4 1.7 2.4 3.2 2.4-1.2.9-2.7 1.4-4.2 1.5-.3 0-.6 0-.8-.1 1.5 1 3.3 1.5 5.2 1.5 5.3 0 9.6-4.2 9.7-9.5v-.5c.5-.5 1.1-1.2 1.6-1.9" class="st0"/></symbol><symbol id="cart-icon" viewBox="0 0 100 100"><style>.st0{fill:#e3c6bf}</style><path d="M7 961.4c-1.7 0-3 1.3-3 3s1.3 3 3 3h11.6l10.3 48.7c.4 1.8 1.6 3.4 3.1 3.3h50c1.6 0 3-1.4 3-3s-1.5-3-3-3H34.5l-1.3-6H86c1.3 0 2.6-1 2.9-2.3l7-30c.4-1.7-1.1-3.6-2.9-3.7H25.6l-1.6-7.6c-.3-1.3-1.6-2.4-2.9-2.4H7zm19.8 16h15.6l1.5 9H28.7l-1.9-9zm21.8 0h18.9l-1.5 9H50.1l-1.5-9zm25 0h15.7l-2.1 9H72.1l1.5-9zm-43.6 15h15l1.5 9H31.9l-1.9-9zm21.1 0H65l-1.5 9H52.6l-1.5-9zm20 0h14.7l-2.1 9H69.6l1.5-9zm-28.1 31c-5.5 0-10 4.5-10 10s4.5 10 10 10 10-4.5 10-10-4.5-10-10-10zm28 0c-5.5 0-10 4.5-10 10s4.5 10 10 10 10-4.5 10-10-4.5-10-10-10zm-28 6c2.2 0 4 1.8 4 4s-1.8 4-4 4-4-1.8-4-4c0-2.3 1.8-4 4-4zm28 0c2.2 0 4 1.8 4 4s-1.8 4-4 4-4-1.8-4-4c0-2.3 1.8-4 4-4z" class="st0" transform="translate(0 -952.362)"/></symbol><symbol id="search-icon" viewBox="0 0 100 100"><style>.st0{fill:#e3c6bf}</style><path d="M96.9 88.4L74.5 66c11.7-15.8 10.3-38.6-3.9-52.8C62.9 5.6 52.8 1.4 41.9 1.4c-10.8 0-21 4.2-28.7 11.9C5.6 20.9 1.4 31.1 1.4 41.9s4.2 21 11.9 28.7C21 78.3 31.1 82.5 42 82.5c8.8 0 17.2-2.8 24.1-8l22.4 22.4c1.1 1.1 2.6 1.8 4.2 1.8s3.1-.6 4.2-1.8c1.1-1.1 1.8-2.6 1.8-4.2s-.7-3.2-1.8-4.3zm-55-75c7.6 0 14.8 3 20.2 8.4 5.4 5.4 8.4 12.6 8.4 20.2s-3 14.8-8.4 20.2c-5.4 5.4-12.6 8.4-20.2 8.4s-14.8-3-20.2-8.4c-5.4-5.4-8.4-12.6-8.4-20.2s3-14.8 8.4-20.2c5.4-5.5 12.6-8.4 20.2-8.4z" class="st0"/></symbol><symbol id="profile-icon" viewBox="0 0 100 100"><style>.st0{fill:#e3c6bf}</style><circle cx="50" cy="30" r="18" class="st0"/><path d="M11.5 82.1c-.5 3.1 2 5.9 5.1 5.9h66.8c3.2 0 5.6-2.8 5.1-5.9C85.6 64.2 69.5 54 50 54S14.4 64.2 11.5 82.1z" class="st0"/></symbol><symbol id="menu-icon" viewBox="0 0 100 100"><path fill="none" stroke="#e3c6bf" stroke-linecap="round" stroke-miterlimit="10" stroke-width="8.31" d="M9.25 28.11h81.5M9.25 50h81.5M9.25 71.89h81.5"/></symbol><symbol id="cart-icon" viewBox="0 0 100 100"><style>.st0{fill:#e3c6bf}</style><path d="M7 961.4c-1.7 0-3 1.3-3 3s1.3 3 3 3h11.6l10.3 48.7c.4 1.8 1.6 3.4 3.1 3.3h50c1.6 0 3-1.4 3-3s-1.5-3-3-3H34.5l-1.3-6H86c1.3 0 2.6-1 2.9-2.3l7-30c.4-1.7-1.1-3.6-2.9-3.7H25.6l-1.6-7.6c-.3-1.3-1.6-2.4-2.9-2.4H7zm19.8 16h15.6l1.5 9H28.7l-1.9-9zm21.8 0h18.9l-1.5 9H50.1l-1.5-9zm25 0h15.7l-2.1 9H72.1l1.5-9zm-43.6 15h15l1.5 9H31.9l-1.9-9zm21.1 0H65l-1.5 9H52.6l-1.5-9zm20 0h14.7l-2.1 9H69.6l1.5-9zm-28.1 31c-5.5 0-10 4.5-10 10s4.5 10 10 10 10-4.5 10-10-4.5-10-10-10zm28 0c-5.5 0-10 4.5-10 10s4.5 10 10 10 10-4.5 10-10-4.5-10-10-10zm-28 6c2.2 0 4 1.8 4 4s-1.8 4-4 4-4-1.8-4-4c0-2.3 1.8-4 4-4zm28 0c2.2 0 4 1.8 4 4s-1.8 4-4 4-4-1.8-4-4c0-2.3 1.8-4 4-4z" class="st0" transform="translate(0 -952.362)"/></symbol><symbol id="exit-icon" viewBox="0 0 100 100"><path fill="none" stroke="#e3c6bf" stroke-linecap="round" stroke-miterlimit="10" stroke-width="8.31" d="M21.19 78.81l57.62-57.62m-57.62 0l57.62 57.62"/></symbol><symbol id="search-icon" viewBox="0 0 100 100"><style>.st0{fill:#e3c6bf}</style><path d="M96.9 88.4L74.5 66c11.7-15.8 10.3-38.6-3.9-52.8C62.9 5.6 52.8 1.4 41.9 1.4c-10.8 0-21 4.2-28.7 11.9C5.6 20.9 1.4 31.1 1.4 41.9s4.2 21 11.9 28.7C21 78.3 31.1 82.5 42 82.5c8.8 0 17.2-2.8 24.1-8l22.4 22.4c1.1 1.1 2.6 1.8 4.2 1.8s3.1-.6 4.2-1.8c1.1-1.1 1.8-2.6 1.8-4.2s-.7-3.2-1.8-4.3zm-55-75c7.6 0 14.8 3 20.2 8.4 5.4 5.4 8.4 12.6 8.4 20.2s-3 14.8-8.4 20.2c-5.4 5.4-12.6 8.4-20.2 8.4s-14.8-3-20.2-8.4c-5.4-5.4-8.4-12.6-8.4-20.2s3-14.8 8.4-20.2c5.4-5.5 12.6-8.4 20.2-8.4z" class="st0"/></symbol><symbol id="profile-icon" viewBox="0 0 100 100"><style>.st0{fill:#e3c6bf}</style><circle cx="50" cy="30" r="18" class="st0"/><path d="M11.5 82.1c-.5 3.1 2 5.9 5.1 5.9h66.8c3.2 0 5.6-2.8 5.1-5.9C85.6 64.2 69.5 54 50 54S14.4 64.2 11.5 82.1z" class="st0"/></symbol><symbol id="menu-icon" viewBox="0 0 100 100"><path fill="none" stroke="#e3c6bf" stroke-linecap="round" stroke-miterlimit="10" stroke-width="8.31" d="M9.25 28.11h81.5M9.25 50h81.5M9.25 71.89h81.5"/></symbol><symbol id="twitter-icon" viewBox="0 0 24 24"><style>.st0{fill:#fff}</style><path d="M20.3 6.8c-.6.3-1.3.5-1.9.6.7-.4 1.2-1.1 1.5-1.9-.7.4-1.4.7-2.1.8-.7-.7-1.6-1.1-2.6-1.1-1.9 0-3.4 1.5-3.4 3.4 0 .3 0 .5.1.8-2.8-.1-5.3-1.4-7-3.5-.4.5-.5 1.1-.5 1.7 0 1.1.6 2.2 1.5 2.8-.5-.1-1-.2-1.5-.4v.1c0 1.6 1.1 3 2.7 3.3-.3.1-.6.1-.9.1-.2 0-.4 0-.6-.1.4 1.4 1.7 2.4 3.2 2.4-1.2.9-2.7 1.4-4.2 1.5-.3 0-.6 0-.8-.1 1.5 1 3.3 1.5 5.2 1.5 5.3 0 9.6-4.2 9.7-9.5v-.5c.5-.5 1.1-1.2 1.6-1.9" class="st0"/></symbol><symbol id="facebook-icon" viewBox="0 0 24 24"><path fill="#e3c6bf" d="M12 0a12 12 0 0 0-1.79 23.85v-8.67h-3V12h3V9.93c0-3.48 1.69-5 4.58-5a16.26 16.26 0 0 1 2.46.15v2.75h-2c-1.23 0-1.66 1.16-1.66 2.47V12h3.6l-.49 3.15h-3.08v8.7A12 12 0 0 0 12 0z"/></symbol><symbol id="instagram-icon" viewBox="0 0 50 50"><path fill="#e3c6bf" d="M16 3A13 13 0 0 0 3 16v18a13 13 0 0 0 13 13h18a13 13 0 0 0 13-13V16A13 13 0 0 0 34 3zm21 8a2 2 0 1 1-2 2 2 2 0 0 1 2-2zm-12 3a11 11 0 1 1-11 11 11 11 0 0 1 11-11zm0 2a9 9 0 1 0 9 9 9 9 0 0 0-9-9z"/></symbol></svg>