<svg xmlns="http://www.w3.org/2000/svg"><symbol id="back-icon" viewBox="0 0 81.09 93.6"><path fill="none" stroke="#231f20" stroke-linecap="round" stroke-miterlimit="10" stroke-width="7" d="M77.59 90.1l-37.5-21.65L4 47.59A.91.91 0 0 1 4 46l36.09-20.85L77.59 3.5"/></symbol><symbol id="cart-icon" viewBox="0 0 100 100"><path d="M7 9c-1.7 0-3 1.3-3 3s1.3 3 3 3h11.6l10.3 48.7c.4 1.8 1.6 3.4 3.1 3.3h50c1.6 0 3-1.4 3-3s-1.5-3-3-3H34.5l-1.3-6H86c1.3 0 2.6-1 2.9-2.3l7-30c.4-1.7-1.1-3.6-2.9-3.7H25.6L24 11.4c-.3-1.3-1.6-2.4-2.9-2.4H7zm19.8 16h15.6l1.5 9H28.7l-1.9-9zm21.8 0h18.9L66 34H50.1l-1.5-9zm25 0h15.7l-2.1 9H72.1l1.5-9zM30 40h15l1.5 9H31.9L30 40zm21.1 0H65l-1.5 9H52.6l-1.5-9zm20 0h14.7l-2.1 9H69.6l1.5-9zM43 71c-5.5 0-10 4.5-10 10s4.5 10 10 10 10-4.5 10-10-4.5-10-10-10zm28 0c-5.5 0-10 4.5-10 10s4.5 10 10 10 10-4.5 10-10-4.5-10-10-10zm-28 6c2.2 0 4 1.8 4 4s-1.8 4-4 4-4-1.8-4-4c0-2.3 1.8-4 4-4zm28 0c2.2 0 4 1.8 4 4s-1.8 4-4 4-4-1.8-4-4c0-2.3 1.8-4 4-4z"/></symbol><symbol id="search-icon" viewBox="0 0 100 100"><path d="M96.9 88.4L74.5 66c11.7-15.8 10.3-38.6-3.9-52.8C62.9 5.6 52.8 1.4 41.9 1.4c-10.8 0-21 4.2-28.7 11.9C5.6 20.9 1.4 31.1 1.4 41.9s4.2 21 11.9 28.7S31.1 82.5 42 82.5c8.8 0 17.2-2.8 24.1-8l22.4 22.4c1.1 1.1 2.6 1.8 4.2 1.8s3.1-.6 4.2-1.8c1.1-1.1 1.8-2.6 1.8-4.2s-.7-3.2-1.8-4.3zm-55-75c7.6 0 14.8 3 20.2 8.4s8.4 12.6 8.4 20.2-3 14.8-8.4 20.2-12.6 8.4-20.2 8.4-14.8-3-20.2-8.4-8.4-12.6-8.4-20.2 3-14.8 8.4-20.2c5.4-5.5 12.6-8.4 20.2-8.4z"/></symbol><symbol id="profile-icon" viewBox="0 0 100 100"><circle cx="50" cy="30" r="18"/><path d="M11.5 82.1c-.5 3.1 2 5.9 5.1 5.9h66.8c3.2 0 5.6-2.8 5.1-5.9C85.6 64.2 69.5 54 50 54S14.4 64.2 11.5 82.1z"/></symbol><symbol id="twitter-icon" viewBox="0 0 24 24"><path fill="#fff" d="M20.3 6.9c-.6.3-1.3.5-1.9.6.7-.4 1.2-1.1 1.5-1.9-.7.4-1.4.7-2.1.8-.7-.7-1.6-1.1-2.6-1.1-1.9 0-3.4 1.5-3.4 3.4 0 .3 0 .5.1.8-2.8-.2-5.3-1.5-7-3.6-.4.5-.5 1.1-.5 1.7 0 1.1.6 2.2 1.5 2.8-.5-.1-1-.2-1.5-.4v.1c0 1.6 1.1 3 2.7 3.3-.3.1-.6.1-.9.1-.2 0-.4 0-.6-.1.4 1.4 1.7 2.4 3.2 2.4-1.2.9-2.7 1.4-4.2 1.5-.3 0-.6 0-.8-.1 1.5 1 3.3 1.5 5.2 1.5 5.3 0 9.6-4.2 9.7-9.5v-.5c.5-.5 1.1-1.1 1.6-1.8"/></symbol><symbol id="instagram-icon" viewBox="0 0 24 24"><path fill="#fff" d="M19.9 2.7c.8 0 1.5.7 1.5 1.5s-.7 1.5-1.5 1.5-1.5-.7-1.5-1.5.6-1.5 1.5-1.5zm-9 2.2c4.5 0 8.2 3.7 8.2 8.2s-3.7 8.2-8.2 8.2-8.2-3.7-8.2-8.2 3.6-8.2 8.2-8.2zm0 1.5a6.7 6.7 0 1 0 0 13.4 6.7 6.7 0 0 0 0-13.4z"/></symbol><symbol id="facebook-icon" viewBox="0 0 24 24"><path fill="#fff" d="M10 21.5v-8.7H7V9.6h3V7.5c0-3.5 1.7-5 4.6-5 .8 0 1.6 0 2.5.2v2.8h-2c-1.2 0-1.7 1.2-1.7 2.5v1.6H17l-.5 3.1h-3.1v8.7"/></symbol><symbol id="exit-icon" viewBox="0 0 100 100"><path fill="none" stroke="#e3c6bf" stroke-linecap="round" stroke-miterlimit="10" stroke-width="8.31" d="M21.19 78.81l57.62-57.62m-57.62 0l57.62 57.62"/></symbol><symbol id="menu-icon" viewBox="0 0 100 100"><path fill="none" stroke="#e3c6bf" stroke-linecap="round" stroke-miterlimit="10" stroke-width="8.31" d="M9.25 28.11h81.5M9.25 50h81.5M9.25 71.89h81.5"/></symbol><symbol id="back-icon" viewBox="0 0 100 125"><path d="M73.2 94.3l-33-31.8 33-31.8a6.13 6.13 0 0 0 1.9-4.4 6.27 6.27 0 0 0-1.8-4.5 6.13 6.13 0 0 0-4.4-1.9h-.1a6.2 6.2 0 0 0-4.4 1.8L26.7 58a6.36 6.36 0 0 0-1.9 4.5 6.19 6.19 0 0 0 1.9 4.5l37.8 36.3a6.47 6.47 0 0 0 4.4 1.8 6.36 6.36 0 0 0 4.5-1.9 6.27 6.27 0 0 0 1.8-4.5 5.71 5.71 0 0 0-2-4.4z"/></symbol></svg>