<svg id="Layer_1" data-name="Layer 1" xmlns="http://www.w3.org/2000/svg" width="16" height="16" viewBox="0 0 16 16"><title>logo-16</title><path d="M11.23,9.34A4.73,4.73,0,0,1,6.7,13.92c-2.41,0-4.3-1.22-4.3-3.11,0-1.66,1-3,3.26-3.6A2.55,2.55,0,0,1,3.82,4.65c0-2.21,2.61-3.16,4.05-3.16,1.62,0,3.06.65,3.06,1.94a2.22,2.22,0,0,1-1.38,2,.32.32,0,0,1-.16-.21,2.44,2.44,0,0,0,.71-1.6c0-.85-.68-1.54-2.18-1.54C6.08,2.07,5,3.27,5,4.46s.9,2.19,3,2.41a.69.69,0,0,1,0,.2.52.52,0,0,1,0,.24c-1.77.12-4.27,1.07-4.27,3.2,0,1.82,1.63,2.78,3.33,2.78a3.64,3.64,0,0,0,3.55-3.76A1.38,1.38,0,0,0,8.94,8.09,1.63,1.63,0,0,0,7.31,9.71c0,1.26,1.38,1.5,2.13,1.45a.3.3,0,0,1-.11.27,3.22,3.22,0,0,1-1,.18,1.82,1.82,0,0,1-2-1.73c0-1.52,1.26-2.54,3.34-2.54,1.57,0,3.31,1,4.19,1,.36,0,.56-.15.56-.56a.78.78,0,0,0-.83-.64.19.19,0,0,1,.05-.24c.82,0,1.23.38,1.23.83s-.38,1.33-1.65,1.33a6.1,6.1,0,0,1-2.16-.64A2.2,2.2,0,0,1,11.23,9.34Z" fill="#d9a396"/></svg>