<svg id="Layer_1" data-name="Layer 1" xmlns="http://www.w3.org/2000/svg" width="64" height="64" viewBox="0 0 64 64"><title>logo-64</title><path d="M22,26.66c3.49-.17,4.81-2,4.81-3.69,0-2.62-2.22-3.56-4.34-3.56-3.36,0-5.95,1.56-5.95,3.75a1.67,1.67,0,0,0,1.91,1.77,2.4,2.4,0,0,0,1-.21.3.3,0,0,1,.08.16,1.89,1.89,0,0,1-1.5.79,2.11,2.11,0,0,1-2.18-2.21c0-3,3.69-4.73,6.78-4.73,2.51,0,5.34,1.2,5.34,4s-2.73,4.41-5.9,4.41A.49.49,0,0,1,22,26.66Zm-2.59,4.23a44.73,44.73,0,0,0,1-5.49c.33-2,.52-4.53,2-4.94l.06.08c-.37.63-.47,2.31-.94,4.93C21.2,27.93,21,31,19.48,31Z" fill="#231f20"/><path d="M36.45,26.85c-.68,1.9-2.21,4.12-5,4.12-1.94,0-2.83-1.54-2.83-3.22,0-1.87,1.33-5.05,3.87-5.05,1.51,0,1.88,1,1.88,1.6,0,1.48-1.79,2.73-4.63,2.84,0,.17,0,.36,0,.53,0,1.36.6,2.56,2.19,2.56,2.32,0,3.66-2.19,4-3.53Zm-3.08-2.62c0-.77-.44-1-.87-1-1.45,0-2.43,1.57-2.69,3.37C32.33,26.49,33.37,25.48,33.37,24.23Z" fill="#231f20"/><path d="M45.25,26.82C44.72,28.87,43.38,31,41.58,31c-1.11,0-1.53-.93-1.53-2.21,0-1,.49-2.43.49-3.47s-.15-1.75-.94-1.75c-1.62,0-2.63,2.92-2.91,4.86a18.16,18.16,0,0,0-.23,2.07,1.54,1.54,0,0,1-1.07.36c0-1.18.73-4.91,1.07-7.84a1.37,1.37,0,0,1,1.09-.1l-.33,2c.62-1.2,1.49-2.13,2.73-2.13s1.67.87,1.67,2.24c0,1.06-.49,2.59-.49,3.71,0,.92.21,1.5.94,1.5,1.16,0,2.33-1.89,2.66-3.53Z" fill="#231f20"/><path d="M13.58,33.71c0,2.48-2.21,6-5.95,6C4.45,39.73,2,38.13,2,35.65c0-2.19,1.26-3.92,4.29-4.74a3.35,3.35,0,0,1-2.42-3.36c0-2.91,3.43-4.15,5.32-4.15,2.13,0,4,.84,4,2.55a2.89,2.89,0,0,1-1.81,2.61.44.44,0,0,1-.21-.28,3.24,3.24,0,0,0,.93-2.1c0-1.12-.89-2-2.86-2-2.42,0-3.88,1.58-3.88,3.13s1.18,2.89,3.88,3.18a1.09,1.09,0,0,1,0,.25.91.91,0,0,1-.06.32c-2.34.17-5.62,1.41-5.62,4.21,0,2.4,2.14,3.66,4.37,3.66A4.79,4.79,0,0,0,12.63,34a1.81,1.81,0,0,0-2.06-1.89,2.13,2.13,0,0,0-2.14,2.12c0,1.67,1.81,2,2.8,1.92a.46.46,0,0,1-.15.36,4.77,4.77,0,0,1-1.33.23,2.4,2.4,0,0,1-2.61-2.27c0-2,1.67-3.35,4.4-3.35,2.06,0,4.36,1.33,5.51,1.33.47,0,.74-.19.74-.74a1,1,0,0,0-1.09-.84.26.26,0,0,1,.06-.32c1.07,0,1.62.51,1.62,1.1s-.51,1.74-2.17,1.74a7.86,7.86,0,0,1-2.84-.84A3.09,3.09,0,0,1,13.58,33.71Z" fill="#d9a396"/><path d="M22,41c3.49-.17,4.81-2,4.81-3.69,0-2.62-2.22-3.57-4.34-3.57-3.36,0-5.95,1.56-5.95,3.76a1.67,1.67,0,0,0,1.91,1.76,2.38,2.38,0,0,0,1-.2.24.24,0,0,1,.08.16A1.89,1.89,0,0,1,18,40a2.12,2.12,0,0,1-2.18-2.21c0-3,3.69-4.74,6.78-4.74,2.51,0,5.34,1.2,5.34,4s-2.73,4.4-5.9,4.4A.47.47,0,0,1,22,41Zm-2.59,4.23a45.45,45.45,0,0,0,1-5.49c.33-2,.52-4.53,2-4.94l.06.08c-.37.63-.47,2.3-.94,4.92-.4,2.46-.63,5.51-2.12,5.51Z" fill="#231f20"/><path d="M39.1,41.17c-.57,2-1.88,4.15-3.68,4.15-1.31,0-1.86-1-1.88-2.4-.59,1.32-1.48,2.4-2.77,2.4-1.5,0-2.15-1.57-2.15-3.22,0-1.85,1.28-5,4-5a4,4,0,0,1,1.66.32v-.08a1.08,1.08,0,0,1,1.09-.11,53.36,53.36,0,0,0-.77,5.51c0,1,.34,1.83,1.29,1.83,1.17,0,2.34-1.91,2.67-3.54Zm-4.92-3.05a2.65,2.65,0,0,0-1.52-.46c-1.83,0-2.93,2.21-2.93,4.36,0,1.37.44,2.56,1.51,2.56,1.34,0,2.21-2.39,2.57-4.28C33.91,39.62,34.05,38.86,34.18,38.12Z" fill="#231f20"/><path d="M47.73,41.2c-.57,2.59-2.13,4.26-4.23,4.26a5.39,5.39,0,0,1-1.7-.32,3.33,3.33,0,0,1-1.15.19c-.46,0-1-.22-1-.8a.89.89,0,0,1,.74-.76l.11,0a8.4,8.4,0,0,0,1.2.68,4.72,4.72,0,0,0,1.89-4.07c0-1.37-.46-2.56-1.59-2.56-1.28,0-2.13,2.2-2.53,4.06-.47,3.06-1,6.15-1,7.22a3.68,3.68,0,0,1-1.15.42c0-2.1,1.43-8.57,1.7-12.22.25-.15.82-.36,1.09,0-.06.56-.14,1.19-.24,1.83.59-1.16,1.41-2,2.59-2,1.56,0,2.23,1.56,2.23,3.24a5.7,5.7,0,0,1-2.21,4.4,3.53,3.53,0,0,0,1,.14c2.15,0,3.35-1.89,3.71-3.82Z" fill="#231f20"/><path d="M54.85,41.2c-.68,1.89-2.21,4.12-5,4.12-1.94,0-2.83-1.55-2.83-3.22,0-1.88,1.33-5.05,3.87-5.05,1.51,0,1.87,1,1.87,1.59,0,1.49-1.78,2.73-4.62,2.84,0,.18,0,.37,0,.54,0,1.36.6,2.56,2.19,2.56,2.32,0,3.66-2.2,4-3.54Zm-3.08-2.62c0-.77-.44-1-.87-1-1.45,0-2.43,1.58-2.69,3.38C50.73,40.84,51.77,39.83,51.77,38.58Z" fill="#231f20"/><path d="M62.26,41.17c-.53,2-1.87,4.15-3.67,4.15-1.07,0-1.47-.93-1.47-2.16s.43-2.5.43-3.37c0-1-.27-1.21-2.09-1.65a20.73,20.73,0,0,1-.61,3c-.06.13-.52.07-.52-.11A19.92,19.92,0,0,0,55,38,1,1,0,0,1,54.19,37a.81.81,0,0,1,.74-.88c.53.16.65.87.63,1.48,1.48.37,3.08.52,3.08,2,0,.61-.51,2.35-.51,3.58,0,.88.21,1.47.95,1.47,1.17,0,2.33-1.9,2.66-3.54Z" fill="#231f20"/></svg>