<svg id="Layer_1" data-name="Layer 1" xmlns="http://www.w3.org/2000/svg" width="240.86" height="60.01" viewBox="0 0 240.86 60.01"><title>logo</title><path d="M16.49,26.59c9.26-.43,12.79-5.37,12.81-9.77,0-7-5.88-9.48-11.5-9.5C8.88,7.29,2,11.42,2,17.24,2,19.67,3.22,21.94,7,22a6.3,6.3,0,0,0,2.64-.54.73.73,0,0,1,.21.42,5,5,0,0,1-4,2.09A5.61,5.61,0,0,1,.13,18C.15,10,10,5.49,18.18,5.52c6.67,0,14.16,3.23,14.13,10.6,0,7-7.28,11.67-15.7,11.64A1.31,1.31,0,0,1,16.49,26.59ZM9.58,37.8c1.4-4.61,2-9.76,2.81-14.58.9-5.36,1.42-12,5.4-13.09l.17.21C17,12,16.68,16.45,15.41,23.4,14.34,29.93,13.68,38,9.75,38Z" fill="#231f20"/><path d="M51.26,27.2c-1.82,5-5.9,10.92-13.32,10.89-5.15,0-7.49-4.13-7.47-8.57,0-5,3.56-13.39,10.3-13.37,4,0,5,2.65,5,4.24,0,3.94-4.76,7.24-12.3,7.51a13.48,13.48,0,0,0-.05,1.42c0,3.61,1.57,6.8,5.8,6.81,6.16,0,9.74-5.8,10.67-9.35Zm-8.15-7c0-2-1.17-2.6-2.3-2.61-3.85,0-6.47,4.17-7.19,9C40.32,26.2,43.1,23.53,43.11,20.22Z" fill="#231f20"/><path d="M74.84,27.19c-1.44,5.44-5,11-9.79,11-2.94,0-4.06-2.49-4-5.88,0-2.72,1.32-6.45,1.33-9.21s-.37-4.66-2.46-4.66c-4.32,0-7,7.73-7.79,12.88a49.39,49.39,0,0,0-.61,5.49,4.17,4.17,0,0,1-2.85,1c0-3.14,2-13,2.92-20.81a3.5,3.5,0,0,1,2.89-.25l-.9,5.36c1.65-3.18,4-5.64,7.27-5.63s4.43,2.32,4.42,6c0,2.81-1.32,6.87-1.33,9.84,0,2.44.53,4,2.46,4,3.1,0,6.22-5,7.11-9.36Z" fill="#231f20"/><path d="M104.42,26.32c0,4.94-4.44,12-11.89,11.94-6.33,0-11.26-3.22-11.25-8.16,0-4.36,2.54-7.79,8.58-9.4A6.69,6.69,0,0,1,85.06,14c0-5.78,6.86-8.23,10.63-8.22,4.23,0,8,1.7,8,5.09A5.75,5.75,0,0,1,100.05,16a.8.8,0,0,1-.41-.55,6.39,6.39,0,0,0,1.85-4.18c0-2.22-1.74-4-5.68-4-4.82,0-7.72,3.12-7.73,6.22,0,2.85,2.33,5.74,7.69,6.35a2.17,2.17,0,0,1,.08.5,1.58,1.58,0,0,1-.13.63c-4.65.32-11.19,2.77-11.21,8.34,0,4.78,4.25,7.31,8.69,7.32a9.52,9.52,0,0,0,9.33-9.82c0-2.76-2-3.77-4.09-3.78a4.26,4.26,0,0,0-4.29,4.22c0,3.31,3.59,3.95,5.56,3.83a.81.81,0,0,1-.29.71,8.76,8.76,0,0,1-2.64.45c-3.1,0-5.19-2.07-5.18-4.54,0-4,3.33-6.65,8.77-6.63,4.11,0,8.67,2.66,11,2.67.93,0,1.47-.37,1.47-1.46a2.06,2.06,0,0,0-2.17-1.68.52.52,0,0,1,.13-.63c2.14,0,3.22,1,3.22,2.19,0,1.46-1,3.47-4.33,3.46A15.48,15.48,0,0,1,104,23.93,6.28,6.28,0,0,1,104.42,26.32Z" fill="#d9a496"/><path d="M136.43,27c9.26-.43,12.79-5.36,12.8-9.76,0-7-5.87-9.49-11.49-9.51-8.92,0-15.81,4.1-15.83,9.92,0,2.43,1.25,4.7,5.06,4.71a6.28,6.28,0,0,0,2.64-.53.68.68,0,0,1,.21.42,5,5,0,0,1-4,2.08,5.61,5.61,0,0,1-5.76-5.89c0-8,9.84-12.53,18.05-12.51,6.67,0,14.16,3.23,14.13,10.6,0,7-7.28,11.67-15.7,11.65A1.33,1.33,0,0,1,136.43,27Zm-6.91,11.21c1.4-4.61,2-9.76,2.81-14.57.9-5.36,1.42-12,5.4-13.1l.17.21c-1,1.67-1.28,6.11-2.55,13.06-1.07,6.54-1.73,14.62-5.66,14.61Z" fill="#231f20"/><path d="M178.66,27.51c-1.53,5.45-5,11-9.8,11-3.48,0-4.94-2.7-5-6.38-1.6,3.51-4,6.35-7.39,6.34-4,0-5.69-4.16-5.68-8.56,0-4.9,3.44-13.23,10.69-13.21a10.88,10.88,0,0,1,4.4.85l0-.21a2.84,2.84,0,0,1,2.89-.28c-.89,5.07-2.09,12.18-2.1,14.62,0,2.8.91,4.86,3.42,4.87,3.1,0,6.22-5.05,7.11-9.37Zm-13-8.13a7,7,0,0,0-4-1.22c-4.86,0-7.81,5.84-7.83,11.54,0,3.64,1.15,6.79,4,6.8,3.56,0,5.89-6.31,6.87-11.34C164.88,23.36,165.27,21.35,165.61,19.38Z" fill="#231f20"/><path d="M201.78,27.67C200.25,34.54,196.09,39,190.51,39a14.27,14.27,0,0,1-4.52-.86,9.26,9.26,0,0,1-3.06.5c-1.21,0-2.6-.6-2.59-2.15a2.34,2.34,0,0,1,2-2l.29.08a22.43,22.43,0,0,0,3.18,1.81c3.19-1.79,5.05-6.35,5.06-10.79,0-3.65-1.19-6.79-4.21-6.8-3.4,0-5.68,5.8-6.74,10.75-1.28,8.12-2.69,16.33-2.7,19.18a10.29,10.29,0,0,1-3.06,1.08c.06-5.58,3.88-22.74,4.63-32.42.67-.42,2.18-1,2.89,0-.18,1.47-.39,3.14-.65,4.86,1.56-3.1,3.75-5.44,6.89-5.43,4.15,0,5.9,4.17,5.88,8.61,0,3.6-1.95,9.09-5.9,11.67a9.21,9.21,0,0,0,2.64.39c5.7,0,8.9-5,9.88-10.11Z" fill="#231f20"/><path d="M220.88,27.73c-1.82,5-5.9,10.92-13.32,10.89-5.15,0-7.48-4.13-7.47-8.57,0-5,3.56-13.4,10.31-13.38,4,0,5,2.66,5,4.25,0,3.94-4.76,7.24-12.3,7.51,0,.46,0,1,0,1.42,0,3.6,1.58,6.79,5.81,6.81,6.16,0,9.74-5.8,10.67-9.36Zm-8.15-7c0-2.06-1.16-2.61-2.29-2.61-3.86,0-6.47,4.17-7.2,9C210,26.73,212.72,24.06,212.73,20.75Z" fill="#231f20"/><path d="M240.78,27.71c-1.44,5.44-5,11-9.8,11-2.85,0-3.89-2.49-3.88-5.76,0-2.89,1.16-6.61,1.16-8.92,0-2.76-.7-3.23-5.51-4.42a61.75,61.75,0,0,1-1.66,8.09c-.17.33-1.39.16-1.38-.3a55.1,55.1,0,0,0,1.7-8.12,2.62,2.62,0,0,1-2-2.82,2.16,2.16,0,0,1,2-2.34c1.42.42,1.71,2.31,1.66,3.94,3.94,1,8.17,1.41,8.16,5.27,0,1.63-1.36,6.24-1.37,9.51,0,2.34.53,3.89,2.5,3.9,3.1,0,6.22-5,7.11-9.36Z" fill="#231f20"/></svg>