<svg id="Layer_1" data-name="Layer 1" xmlns="http://www.w3.org/2000/svg" width="32" height="32" viewBox="0 0 32 32"><title>logo-32</title><path d="M21.07,19c0,3.54-3.15,8.58-8.49,8.58-4.53,0-8.07-2.28-8.07-5.82,0-3.12,1.8-5.58,6.12-6.75a4.79,4.79,0,0,1-3.45-4.8c0-4.14,4.89-5.91,7.59-5.91,3,0,5.73,1.2,5.73,3.63a4.13,4.13,0,0,1-2.58,3.72.58.58,0,0,1-.3-.39,4.62,4.62,0,0,0,1.32-3c0-1.59-1.26-2.88-4.08-2.88-3.45,0-5.52,2.25-5.52,4.47,0,2,1.68,4.11,5.52,4.53a1.51,1.51,0,0,1,.06.36,1.2,1.2,0,0,1-.09.45c-3.33.24-8,2-8,6,0,3.42,3.06,5.22,6.24,5.22a6.83,6.83,0,0,0,6.66-7c0-2-1.41-2.7-2.94-2.7a3,3,0,0,0-3.06,3c0,2.37,2.58,2.82,4,2.73a.6.6,0,0,1-.21.51,6.43,6.43,0,0,1-1.89.33A3.42,3.42,0,0,1,11.89,20c0-2.85,2.37-4.77,6.27-4.77,2.94,0,6.21,1.89,7.86,1.89.66,0,1.05-.27,1.05-1.05a1.49,1.49,0,0,0-1.56-1.2.37.37,0,0,1,.09-.45c1.53,0,2.31.72,2.31,1.56,0,1.05-.72,2.49-3.09,2.49a11.14,11.14,0,0,1-4.05-1.2A4.45,4.45,0,0,1,21.07,19Z" fill="#d9a396"/></svg>